<?xml version="1.0" encoding="UTF-8"?>
<svg width="95px" height="64px" viewBox="0 0 95 64" version="1.1" xmlns="http://www.w3.org/2000/svg" xmlns:xlink="http://www.w3.org/1999/xlink">
    <!-- Generator: Sketch 50.2 (55047) - http://www.bohemiancoding.com/sketch -->
    <title>Group</title>
    <desc>Created with Sketch.</desc>
    <defs></defs>
    <g id="Page-1" stroke="none" stroke-width="1" fill="none" fill-rule="evenodd">
        <g id="Logo" transform="translate(-152.000000, -168.000000)" fill="#14558B">
            <g id="Group" transform="translate(152.000000, 168.000000)">
                <path d="M68.0852016,18.6930041 C68.249284,19.6393086 68.3398848,20.6111605 68.3398848,21.6051358 C68.3398848,22.8211358 68.2089877,24.0065844 67.9653663,25.1517366 C69.1084115,24.9083786 70.2928066,24.7740576 71.5082798,24.7740576 C80.8865185,24.7740576 88.4893498,32.3758354 88.4893498,41.7553909 C88.4893498,51.1328395 80.8865185,58.7367243 71.5082798,58.7367243 C69.2717037,58.7367243 1.95555556,59.5226337 0,58.7367243 C1.21330308,59.9247465 6.08778858,63.9762963 17.6460905,63.9762963 C40.2962963,63.9762963 63.8996543,63.9762963 75.8518519,63.9762963 C85.7552593,63.9762963 94.82693,52.1660576 94.82693,41.7553909 C94.82693,28.876642 84.3867654,18.436214 71.5082798,18.436214 C70.3446914,18.436214 69.2034897,18.5276049 68.0852016,18.6930041 Z" id="Fill-1"></path>
                <path d="M52.3789225,0 C42.182906,0 34.931943,8.68451029 35.906692,14.3086091 C38.6349883,8.58232099 44.4695233,4.62090535 51.2348237,4.62090535 C60.6130624,4.62090535 68.2166838,12.224 68.2166838,21.6027654 C68.2166838,22.8187654 68.0857867,24.004214 67.8421653,25.1493663 C68.986264,24.9060082 70.1696056,24.7716872 71.3850788,24.7716872 C72.3793175,24.7716872 73.3535398,24.8612346 74.3011611,25.0255802 C74.4652435,23.9080823 74.5537373,22.7653004 74.5537373,21.6027654 C74.5537373,8.72348971 65.2568813,0 52.3789225,0" id="Fill-3"></path>
                <path d="M7.3744856,47.2999506 C7.3744856,45.8671863 7.55989938,44.5692898 7.93073251,43.4062222 C8.30156564,42.2431547 8.81566749,41.2486626 9.4730535,40.422716 C10.1304395,39.5967695 10.9100202,38.9604631 11.8118189,38.5137778 C12.7136177,38.0670924 13.7038958,37.8437531 14.7826831,37.8437531 C15.4569252,37.8437531 16.0721618,37.9069623 16.6284115,38.0333827 C17.1846612,38.1598031 17.6776933,38.332575 18.1075226,38.5517037 C18.5373519,38.7708324 18.9166074,39.0152414 19.2453004,39.2849383 C19.5739934,39.5546351 19.856328,39.8411837 20.0923128,40.1445926 L17.1593745,44.3164444 C16.9402458,44.0298916 16.6958367,43.7728406 16.4261399,43.545284 C16.1564431,43.3177273 15.7771876,43.2039506 15.2883621,43.2039506 C14.9343851,43.2039506 14.6183388,43.3050854 14.340214,43.507358 C14.0620891,43.7096306 13.821894,43.9919653 13.6196214,44.3543704 C13.4173488,44.7167755 13.2656466,45.1508123 13.1645103,45.6564938 C13.063374,46.1621754 13.0128066,46.7099888 13.0128066,47.2999506 C13.0128066,47.8899124 13.063374,48.429298 13.1645103,48.9181235 C13.2656466,49.4069489 13.4173488,49.8325579 13.6196214,50.194963 C13.821894,50.5573681 14.0663031,50.8397027 14.352856,51.0419753 C14.6394088,51.2442479 14.959669,51.3453827 15.3136461,51.3453827 C15.7181913,51.3453827 16.0679491,51.2316061 16.36293,51.0040494 C16.6579109,50.7764927 16.8981061,50.5278697 17.0835226,50.2581728 L20.1428807,54.3036049 C19.8900399,54.640726 19.5950634,54.9567722 19.2579424,55.2517531 C18.9208214,55.546734 18.5373519,55.8037849 18.1075226,56.0229136 C17.6776933,56.2420422 17.1888752,56.4190281 16.6410535,56.5538765 C16.0932318,56.688725 15.4737812,56.7561481 14.7826831,56.7561481 C13.7038958,56.7561481 12.7136177,56.5285949 11.8118189,56.0734815 C10.9100202,55.6183681 10.1304395,54.9736338 9.4730535,54.1392593 C8.81566749,53.3048847 8.30156564,52.3103926 7.93073251,51.1557531 C7.55989938,50.0011136 7.3744856,48.7158589 7.3744856,47.2999506 Z M21.4323621,37.1358025 L26.7419918,37.1358025 L26.7419918,56.2504691 L21.4323621,56.2504691 L21.4323621,37.1358025 Z M34.6558683,56.7561481 C33.7119294,56.7561481 32.8649256,56.5749483 32.1148313,56.2125432 C31.364737,55.8501381 30.7242166,55.3444642 30.193251,54.6955062 C29.6622854,54.0465482 29.2577462,53.2753954 28.9796214,52.3820247 C28.7014966,51.488654 28.5624362,50.5194456 28.5624362,49.4743704 C28.5624362,48.4124391 28.7014966,47.4348028 28.9796214,46.5414321 C29.2577462,45.6480614 29.6622854,44.8769086 30.193251,44.2279506 C30.7242166,43.5789926 31.364737,43.0733187 32.1148313,42.7109136 C32.8649256,42.3485085 33.7119294,42.1673086 34.6558683,42.1673086 C35.6166632,42.1673086 36.472095,42.3485085 37.2221893,42.7109136 C37.9722836,43.0733187 38.60859,43.5789926 39.1311276,44.2279506 C39.6536652,44.8769086 40.0539904,45.6480614 40.3321152,46.5414321 C40.6102401,47.4348028 40.7493004,48.4124391 40.7493004,49.4743704 C40.7493004,50.5194456 40.6102401,51.488654 40.3321152,52.3820247 C40.0539904,53.2753954 39.6536652,54.0465482 39.1311276,54.6955062 C38.60859,55.3444642 37.9722836,55.8501381 37.2221893,56.2125432 C36.472095,56.5749483 35.6166632,56.7561481 34.6558683,56.7561481 Z M34.6558683,46.7184198 C34.2513231,46.7184198 33.9521327,46.9838986 33.7582881,47.5148642 C33.5644435,48.0458298 33.4675226,48.6905641 33.4675226,49.4490864 C33.4675226,49.8199195 33.4928063,50.1696774 33.5433745,50.4983704 C33.5939426,50.8270634 33.6655798,51.1178259 33.7582881,51.3706667 C33.8509963,51.6235074 33.9732009,51.8215631 34.1249053,51.9648395 C34.2766098,52.1081159 34.4535957,52.1797531 34.6558683,52.1797531 C34.874997,52.1797531 35.0646247,52.1081159 35.2247572,51.9648395 C35.3848897,51.8215631 35.5155221,51.6235074 35.6166584,51.3706667 C35.7177947,51.1178259 35.7894319,50.8270634 35.831572,50.4983704 C35.8737121,50.1696774 35.8947819,49.8199195 35.8947819,49.4490864 C35.8947819,48.6905641 35.7978611,48.0458298 35.6040165,47.5148642 C35.4101719,46.9838986 35.0941256,46.7184198 34.6558683,46.7184198 Z M54.5543374,56.2504691 L49.5228313,56.2504691 L49.5228313,54.6070123 L49.4469794,54.6070123 C49.2615629,55.1801181 48.8865213,55.6815781 48.3218436,56.1114074 C47.7571659,56.5412367 47.0534363,56.7561481 46.2106337,56.7561481 C45.4015433,56.7561481 44.756809,56.5918041 44.2764115,56.2631111 C43.7960141,55.9344181 43.4209725,55.4961673 43.1512757,54.9483457 C42.8815789,54.400524 42.704593,53.7642176 42.6203128,53.0394074 C42.5360325,52.3145972 42.493893,51.5560863 42.493893,50.7638519 L42.493893,42.6729877 L47.6518189,42.6729877 L47.6518189,50.7638519 C47.6518189,51.2189652 47.7150282,51.572937 47.8414486,51.8257778 C47.9678689,52.0786185 48.1743525,52.205037 48.4609053,52.205037 C48.7811703,52.205037 49.0171515,52.0744046 49.168856,51.8131358 C49.3205604,51.551867 49.3964115,51.2021092 49.3964115,50.7638519 L49.3964115,42.6729877 L54.5543374,42.6729877 L54.5543374,56.2504691 Z M63.6565597,54.9104198 L63.6059918,54.9104198 C63.4205752,55.3655331 63.1213848,55.7700723 62.7084115,56.1240494 C62.2954383,56.4780265 61.7096993,56.6550123 60.951177,56.6550123 C60.2095107,56.6550123 59.5563485,56.4569567 58.9916708,56.0608395 C58.4269931,55.6647223 57.9466028,55.1253367 57.5504856,54.4426667 C57.1543684,53.7599966 56.855178,52.9677741 56.6529053,52.0659753 C56.4506327,51.1641766 56.3494979,50.20761 56.3494979,49.1962469 C56.3494979,48.235452 56.4464188,47.3336668 56.6402634,46.4908642 C56.834108,45.6480616 57.1248705,44.9148344 57.5125597,44.2911605 C57.9002489,43.6674866 58.3806391,43.1744545 58.9537449,42.8120494 C59.5268506,42.4496443 60.1926546,42.2684444 60.951177,42.2684444 C61.5411388,42.2684444 62.0636685,42.4159327 62.5187819,42.7109136 C62.9738953,43.0058945 63.2688718,43.3387965 63.4037202,43.7096296 L63.504856,43.7096296 L63.504856,37.1358025 L68.612214,37.1358025 L68.612214,56.2504691 L63.6565597,56.2504691 L63.6565597,54.9104198 Z M62.5946337,46.7184198 C62.1563764,46.7184198 61.8403302,46.9838986 61.6464856,47.5148642 C61.452641,48.0458298 61.3557202,48.6905641 61.3557202,49.4490864 C61.3557202,49.8199195 61.3767899,50.1696774 61.41893,50.4983704 C61.4610702,50.8270634 61.5327073,51.1178259 61.6338436,51.3706667 C61.7349799,51.6235074 61.8656124,51.8215631 62.0257449,51.9648395 C62.1858773,52.1081159 62.3755051,52.1797531 62.5946337,52.1797531 C62.7969064,52.1797531 62.9738922,52.1081159 63.1255967,51.9648395 C63.2773012,51.8215631 63.3995057,51.6235074 63.492214,51.3706667 C63.5849223,51.1178259 63.6565594,50.8270634 63.7071276,50.4983704 C63.7576957,50.1696774 63.7829794,49.8199195 63.7829794,49.4490864 C63.7829794,48.6905641 63.6860586,48.0458298 63.492214,47.5148642 C63.2983694,46.9838986 62.999179,46.7184198 62.5946337,46.7184198 Z" id="Cloud"></path>
                <path d="M13.2466831,19.1715556 L13.2466831,21.522963 L14.1569053,21.522963 C14.5108824,21.522963 14.7932171,21.4260421 15.0039177,21.2321975 C15.2146183,21.0383529 15.3199671,20.7223067 15.3199671,20.2840494 C15.3199671,19.9132163 15.2104044,19.6350956 14.9912757,19.449679 C14.7721471,19.2642624 14.4940264,19.1715556 14.1569053,19.1715556 L13.2466831,19.1715556 Z M13.2466831,25.4166914 L13.2466831,27.9956543 L14.2074733,27.9956543 C14.5951624,27.9956543 14.9112087,27.8818777 15.1556214,27.654321 C15.4000341,27.4267643 15.5222387,27.119146 15.5222387,26.7314568 C15.5222387,26.2763434 15.3873923,25.9434414 15.1176955,25.7327407 C14.8479987,25.5220401 14.5445943,25.4166914 14.2074733,25.4166914 L13.2466831,25.4166914 Z M18.0506337,23.2928395 C18.7585879,23.5119682 19.3780385,23.9586468 19.9090041,24.6328889 C20.4399697,25.3071309 20.7054486,26.2004883 20.7054486,27.3129877 C20.7054486,28.2906386 20.5453185,29.1123588 20.2250535,29.7781728 C19.9047885,30.4439869 19.4791796,30.9833724 18.948214,31.3963457 C18.4172484,31.8093189 17.8104396,32.1042954 17.1277695,32.281284 C16.4450995,32.4582725 15.7413699,32.5467654 15.0165597,32.5467654 L8.16460905,32.5467654 L8.16460905,14.6457284 L14.3844609,14.6457284 C14.9744227,14.6457284 15.6065151,14.7005097 16.2807572,14.8100741 C16.9549993,14.9196384 17.5744499,15.1387638 18.1391276,15.4674568 C18.7038053,15.7961498 19.1715537,16.27654 19.5423868,16.908642 C19.91322,17.5407439 20.0986337,18.370892 20.0986337,19.3991111 C20.0986337,20.359906 19.909006,21.1521286 19.5297449,21.7758025 C19.1504837,22.3994764 18.6490237,22.8798666 18.0253498,23.2169877 L18.0506337,23.2928395 Z M22.7787325,13.4320988 L28.0883621,13.4320988 L28.0883621,32.5467654 L22.7787325,32.5467654 L22.7787325,13.4320988 Z M42.6013498,32.5467654 L37.5698436,32.5467654 L37.5698436,30.9033086 L37.4939918,30.9033086 C37.3085752,31.4764144 36.9335337,31.9778744 36.368856,32.4077037 C35.8041782,32.837533 35.1004487,33.0524444 34.2576461,33.0524444 C33.4485556,33.0524444 32.8038213,32.8881004 32.3234239,32.5594074 C31.8430264,32.2307144 31.4679849,31.7924636 31.1982881,31.244642 C30.9285912,30.6968203 30.7516054,30.0605139 30.6673251,29.3357037 C30.5830448,28.6108935 30.5409053,27.8523826 30.5409053,27.0601481 L30.5409053,18.969284 L35.6988313,18.969284 L35.6988313,27.0601481 C35.6988313,27.5152615 35.7620405,27.8692333 35.8884609,28.1220741 C36.0148813,28.3749148 36.2213648,28.5013333 36.5079177,28.5013333 C36.8281827,28.5013333 37.0641639,28.3707009 37.2158683,28.1094321 C37.3675728,27.8481633 37.4434239,27.4984055 37.4434239,27.0601481 L37.4434239,18.969284 L42.6013498,18.969284 L42.6013498,32.5467654 Z M55.7742881,29.5885432 C55.2517505,30.7010426 54.5564488,31.5564744 53.6883621,32.1548642 C52.8202755,32.753254 51.7372904,33.0524444 50.4393745,33.0524444 C49.630284,33.0524444 48.8591312,32.9007423 48.125893,32.5973333 C47.3926548,32.2939244 46.7479205,31.8388178 46.1916708,31.232 C45.6354211,30.6251822 45.1971703,29.8708852 44.8769053,28.9690864 C44.5566404,28.0672877 44.3965103,27.0095863 44.3965103,25.7959506 C44.3965103,24.6665952 44.5439985,23.6468194 44.8389794,22.7365926 C45.1339603,21.8263658 45.5427134,21.055213 46.065251,20.4231111 C46.5877886,19.7910092 47.2072392,19.306405 47.9236214,18.969284 C48.6400036,18.6321629 49.4280122,18.4636049 50.2876708,18.4636049 C51.2821778,18.4636049 52.1333956,18.6448048 52.8413498,19.0072099 C53.549304,19.369615 54.130829,19.8795029 54.5859424,20.5368889 C55.0410558,21.1942749 55.3739578,21.9780695 55.5846584,22.8882963 C55.7953591,23.7985231 55.9007078,24.7930152 55.9007078,25.8718025 L55.9007078,27.0348642 L49.3268807,27.0348642 C49.3437367,27.4731215 49.4785831,27.8439491 49.7314239,28.147358 C49.9842646,28.4507669 50.2792411,28.6024691 50.6163621,28.6024691 C50.9871953,28.6024691 51.2821717,28.4844785 51.5013004,28.2484938 C51.7204291,28.0125091 51.8889871,27.7259605 52.0069794,27.3888395 L55.7742881,29.5885432 Z M51.2990288,24.0007901 C51.2990288,23.5119646 51.2273917,23.1116394 51.0841152,22.7998025 C50.9408388,22.4879655 50.7006437,22.3320494 50.3635226,22.3320494 C50.0432577,22.3320494 49.7862067,22.4963934 49.5923621,22.8250864 C49.3985175,23.1537794 49.2931688,23.5456767 49.2763128,24.0007901 L51.2990288,24.0007901 Z" id="Blue"></path>
            </g>
        </g>
    </g>
</svg>