<?xml version="1.0" encoding="UTF-8"?>
<svg width="98px" height="64px" viewBox="0 0 98 64" version="1.1" xmlns="http://www.w3.org/2000/svg" xmlns:xlink="http://www.w3.org/1999/xlink">
    <!-- Generator: Sketch 50.2 (55047) - http://www.bohemiancoding.com/sketch -->
    <title>Logo</title>
    <desc>Created with Sketch.</desc>
    <defs></defs>
    <g id="Page-1" stroke="none" stroke-width="1" fill="none" fill-rule="evenodd">
        <g id="Logo" transform="translate(-8.000000, -79.000000)">
            <g transform="translate(8.000000, 79.000000)">
                <path d="M76.5901639,59.0927505 L76.5901639,61.1147541 L19.9344262,61.1147541 L19.9344262,60.5240535 C11.1969495,58.354095 4.72131148,50.4578708 4.72131148,41.0491803 C4.72131148,29.9672699 13.7049749,20.9836066 24.7868852,20.9836066 C29.9623801,20.9836066 34.6802274,22.9430285 38.2390657,26.1605108 C37.763867,24.6061174 37.5081967,22.955867 37.5081967,21.2459016 C37.5081967,11.9747609 45.0239412,4.45901639 54.295082,4.45901639 C63.5662227,4.45901639 71.0819672,11.9747609 71.0819672,21.2459016 C71.0819672,21.7678506 71.0581461,22.2842358 71.0115318,22.7940295 C71.9737518,22.6383129 72.9610307,22.557377 73.9672131,22.557377 C84.1075233,22.557377 92.3278689,30.7777226 92.3278689,40.9180328 C92.3278689,50.1677952 85.4879846,57.820017 76.5901639,59.0927505 Z" id="Background" fill="#E7FDFE"></path>
                <path d="M24.2502212,63.7140984 C23.9298138,63.7425893 23.5875829,63.7576393 23.223082,63.7576393 C10.397377,63.7576393 0,53.3607869 0,40.535082 C0,27.7091148 10.397377,17.3114754 23.223082,17.3114754 C27.0163934,17.3114754 38.557377,19.9344262 40.9180328,30.1639344 C34.8852459,23.8688525 32.5245902,22.557377 23.223082,22.557377 C13.9215738,22.557377 4.98360656,31.1939672 4.98360656,40.535082 C4.98360656,49.8740984 13.8832787,58.4918033 23.223082,58.4918033 C23.3188612,58.4918033 23.4133322,58.4932176 23.5064823,58.496 C34.3681974,58.496 72.4074523,58.496 74.3627541,58.496 C83.7025574,58.496 91.2742295,50.9232787 91.2742295,41.5842623 C91.2742295,33.1917766 85.1623384,26.2284406 77.1474578,24.9006829 C77.1463716,24.9081285 77.1452821,24.915573 77.1441892,24.9230164 C76.3178434,24.7797035 75.4711865,24.6935029 74.6086207,24.6742753 C74.5268071,24.6731095 74.4448489,24.6725246 74.3627541,24.6725246 C73.1522623,24.6725246 71.9727213,24.8062951 70.8343607,25.0486557 C70.8364364,25.0388988 70.8385038,25.0291389 70.8405631,25.0193761 C70.7975418,25.0281942 70.7545755,25.0371676 70.7116646,25.0462951 C70.9542875,23.9058361 71.0846482,22.7252459 71.0846482,21.5142295 C71.0846482,12.1739016 63.5121892,4.60196721 54.1723859,4.60196721 C47.4348121,4.60196721 41.6241892,8.54714754 38.9070744,14.2499672 C37.9363203,8.64891803 45.1575662,0 55.3117957,0 C67.1170845,0 75.9006165,7.3609348 77.2229401,18.5350481 C88.6992571,19.9446094 97.5858361,29.7266968 97.5858361,41.5842623 C97.5858361,51.9522623 88.5513443,63.7140984 78.6885246,63.7140984 C66.9910315,63.7140984 46.3675036,63.7140984 24.2502212,63.7140984 Z" id="Outline" fill="#1A79C7"></path>
            </g>
        </g>
    </g>
</svg>